<svg width="26" height="26" viewBox="0 0 26 26" fill="none" xmlns="http://www.w3.org/2000/svg">
<path d="M6.4 2.56C6.4 1.88105 6.66971 1.2299 7.14981 0.749807C7.6299 0.269713 8.28105 0 8.96 0H16.64C17.319 0 17.9701 0.269713 18.4502 0.749807C18.9303 1.2299 19.2 1.88105 19.2 2.56V5.12H24.32C24.6595 5.12 24.9851 5.25486 25.2251 5.4949C25.4651 5.73495 25.6 6.06052 25.6 6.4C25.6 6.73948 25.4651 7.06505 25.2251 7.3051C24.9851 7.54514 24.6595 7.68 24.32 7.68H22.9517L21.8419 23.2218C21.7959 23.8676 21.5069 24.4721 21.0331 24.9134C20.5593 25.3547 19.9358 25.6 19.2883 25.6H6.3104C5.6629 25.6 5.03945 25.3547 4.56561 24.9134C4.09178 24.4721 3.80277 23.8676 3.7568 23.2218L2.6496 7.68H1.28C0.940523 7.68 0.61495 7.54514 0.374903 7.3051C0.134857 7.06505 0 6.73948 0 6.4C0 6.06052 0.134857 5.73495 0.374903 5.4949C0.61495 5.25486 0.940523 5.12 1.28 5.12H6.4V2.56ZM8.96 5.12H16.64V2.56H8.96V5.12ZM5.21472 7.68L6.31168 23.04H19.2896L20.3866 7.68H5.21472ZM10.24 10.24C10.5795 10.24 10.905 10.3749 11.1451 10.6149C11.3851 10.8549 11.52 11.1805 11.52 11.52V19.2C11.52 19.5395 11.3851 19.8651 11.1451 20.1051C10.905 20.3451 10.5795 20.48 10.24 20.48C9.90052 20.48 9.57495 20.3451 9.3349 20.1051C9.09486 19.8651 8.96 19.5395 8.96 19.2V11.52C8.96 11.1805 9.09486 10.8549 9.3349 10.6149C9.57495 10.3749 9.90052 10.24 10.24 10.24ZM15.36 10.24C15.6995 10.24 16.025 10.3749 16.2651 10.6149C16.5051 10.8549 16.64 11.1805 16.64 11.52V19.2C16.64 19.5395 16.5051 19.8651 16.2651 20.1051C16.025 20.3451 15.6995 20.48 15.36 20.48C15.0205 20.48 14.695 20.3451 14.4549 20.1051C14.2149 19.8651 14.08 19.5395 14.08 19.2V11.52C14.08 11.1805 14.2149 10.8549 14.4549 10.6149C14.695 10.3749 15.0205 10.24 15.36 10.24Z" fill="black"/>
</svg>
